<svg width="24" height="24" viewBox="0 0 24 24" xmlns="http://www.w3.org/2000/svg">
    <path d="M14 9a1 1 0 0 0 1-1V5a1 1 0 0 0-1-1H5a1 1 0 0 0-1 1v14a1 1 0 0 0 1 1h9a1 1 0 0 0 1-1v-3a1 1 0 0 0-2 0v1.5a.5.5 0 0 1-.5.5h-6a.5.5 0 0 1-.5-.5v-11a.5.5 0 0 1 .5-.5h6a.5.5 0 0 1 .5.5V8a1 1 0 0 0 1 1z"
          fill="#151515"></path>
    <path d="M17.097 12.825H10a1 1 0 1 1 0-2h7.09l-1.118-1.118a1 1 0 0 1 1.414-1.414l2.829 2.828a1 1 0 0 1 0 1.415l-2.829 2.828a1 1 0 1 1-1.414-1.414l1.125-1.125z"
          fill="#151515"></path>
</svg>